<svg xmlns="http://www.w3.org/2000/svg" viewBox="0 0 256 256">
  <!-- Fan Blades -->
  <path d="M128,116 C175,70 230,85 215,115 C200,145 150,140 128,140 Z" fill="#44739E"/>
  <path d="M128,116 C175,70 230,85 215,115 C200,145 150,140 128,140 Z" transform="rotate(120, 128, 128)" fill="#44739E"/>
  <path d="M128,116 C175,70 230,85 215,115 C200,145 150,140 128,140 Z" transform="rotate(240, 128, 128)" fill="#44739E"/>
  
  <!-- Center Hub -->
  <circle cx="128" cy="128" r="16" fill="#44739E"/>
  
  <!-- Gear Overlay -->
  <rect x="181" y="157" width="8" height="56" rx="2" fill="#44739E" transform="rotate(0, 185, 185)"/>
  <rect x="181" y="157" width="8" height="56" rx="2" fill="#44739E" transform="rotate(45, 185, 185)"/>
  <rect x="181" y="157" width="8" height="56" rx="2" fill="#44739E" transform="rotate(90, 185, 185)"/>
  <rect x="181" y="157" width="8" height="56" rx="2" fill="#44739E" transform="rotate(135, 185, 185)"/>
  <circle cx="185" cy="185" r="22" fill="#44739E"/>
  <circle cx="185" cy="185" r="9" fill="white"/>
</svg>